<svg width="32" height="32" viewBox="0 0 32 32" fill="none" xmlns="http://www.w3.org/2000/svg">
<g clip-path="url(#clip0_25_26)">
<path d="M8.96001 22.1867C9.29949 22.0877 9.66439 22.1276 9.97445 22.2977C10.2845 22.4677 10.5143 22.7539 10.6133 23.0934C10.7124 23.4329 10.6725 23.7978 10.5024 24.1079C10.3324 24.4179 10.0462 24.6477 9.70668 24.7467C9.04001 24.9414 8.56001 25.1467 8.25201 25.3334C8.56934 25.5241 9.07068 25.7374 9.76668 25.9361C11.3067 26.3761 13.5107 26.6667 16 26.6667C18.4893 26.6667 20.6933 26.3761 22.2333 25.9361C22.9307 25.7374 23.4307 25.5241 23.748 25.3334C23.4413 25.1467 22.9613 24.9414 22.2947 24.7467C21.9605 24.6434 21.6804 24.4128 21.5147 24.1049C21.3489 23.7969 21.3108 23.4361 21.4086 23.1003C21.5063 22.7644 21.7322 22.4805 22.0373 22.3096C22.3425 22.1387 22.7026 22.0946 23.04 22.1867C23.9307 22.4467 24.7467 22.7801 25.3733 23.2081C25.9533 23.6067 26.6667 24.3014 26.6667 25.3334C26.6667 26.3774 25.936 27.0774 25.3467 27.4761C24.7093 27.9054 23.876 28.2401 22.9653 28.5001C21.128 29.0267 18.6667 29.3334 16 29.3334C13.3333 29.3334 10.872 29.0267 9.03468 28.5001C8.12401 28.2401 7.29068 27.9054 6.65334 27.4761C6.06401 27.0761 5.33334 26.3774 5.33334 25.3334C5.33334 24.3014 6.04668 23.6067 6.62668 23.2081C7.25334 22.7801 8.06934 22.4467 8.96001 22.1867ZM16 2.66675C18.6522 2.66675 21.1957 3.72032 23.0711 5.59568C24.9464 7.47104 26 10.0146 26 12.6667C26 16.0907 24.1333 18.8747 22.2 20.8534C21.4315 21.632 20.6056 22.3518 19.7293 23.0067C18.9373 23.6014 17.1267 24.7161 17.1267 24.7161C16.7833 24.9113 16.395 25.0139 16 25.0139C15.605 25.0139 15.2168 24.9113 14.8733 24.7161C13.9744 24.1956 13.1054 23.625 12.2707 23.0067C11.3941 22.3522 10.5682 21.6324 9.80001 20.8534C7.86668 18.8747 6.00001 16.0907 6.00001 12.6667C6.00001 10.0146 7.05358 7.47104 8.92894 5.59568C10.8043 3.72032 13.3478 2.66675 16 2.66675ZM16 10.0001C15.2928 10.0001 14.6145 10.281 14.1144 10.7811C13.6143 11.2812 13.3333 11.9595 13.3333 12.6667C13.3333 13.374 13.6143 14.0523 14.1144 14.5524C14.6145 15.0525 15.2928 15.3334 16 15.3334C16.7073 15.3334 17.3855 15.0525 17.8856 14.5524C18.3857 14.0523 18.6667 13.374 18.6667 12.6667C18.6667 11.9595 18.3857 11.2812 17.8856 10.7811C17.3855 10.281 16.7073 10.0001 16 10.0001Z" fill="#007AFF"/>
</g>
<defs>
<clipPath id="clip0_25_26">
<rect width="32" height="32" fill="white"/>
</clipPath>
</defs>
</svg>
