<svg width="25" height="25" viewBox="0 0 25 25" fill="none" xmlns="http://www.w3.org/2000/svg">
<g clip-path="url(#clip0_25_50)">
<path d="M14.125 22.388C18.936 21.664 22.625 17.513 22.625 12.5C22.625 6.977 18.148 2.5 12.625 2.5C7.102 2.5 2.625 6.977 2.625 12.5C2.625 17.513 6.314 21.665 11.125 22.388V15.5H9.625C9.22718 15.5 8.84564 15.342 8.56434 15.0607C8.28304 14.7794 8.125 14.3978 8.125 14C8.125 13.6022 8.28304 13.2206 8.56434 12.9393C8.84564 12.658 9.22718 12.5 9.625 12.5H11.125V10.5C11.125 9.57174 11.4937 8.6815 12.1501 8.02513C12.8065 7.36875 13.6967 7 14.625 7H15.125C15.5228 7 15.9044 7.15804 16.1857 7.43934C16.467 7.72064 16.625 8.10218 16.625 8.5C16.625 8.89782 16.467 9.27936 16.1857 9.56066C15.9044 9.84196 15.5228 10 15.125 10H14.625C14.4924 10 14.3652 10.0527 14.2714 10.1464C14.1777 10.2402 14.125 10.3674 14.125 10.5V12.5H15.625C16.0228 12.5 16.4044 12.658 16.6857 12.9393C16.967 13.2206 17.125 13.6022 17.125 14C17.125 14.3978 16.967 14.7794 16.6857 15.0607C16.4044 15.342 16.0228 15.5 15.625 15.5H14.125V22.388Z" fill="#007AFF"/>
</g>
<defs>
<clipPath id="clip0_25_50">
<rect width="24" height="24" fill="white" transform="translate(0.625 0.5)"/>
</clipPath>
</defs>
</svg>
