<svg width="25" height="25" viewBox="0 0 25 25" fill="none" xmlns="http://www.w3.org/2000/svg">
<g clip-path="url(#clip0_25_45)">
<path fill-rule="evenodd" clip-rule="evenodd" d="M16.375 3.5C17.7011 3.5 18.9729 4.02678 19.9105 4.96447C20.8482 5.90215 21.375 7.17392 21.375 8.5V16.5C21.375 17.8261 20.8482 19.0979 19.9105 20.0355C18.9729 20.9732 17.7011 21.5 16.375 21.5H8.375C7.04892 21.5 5.77715 20.9732 4.83947 20.0355C3.90178 19.0979 3.375 17.8261 3.375 16.5V8.5C3.375 7.17392 3.90178 5.90215 4.83947 4.96447C5.77715 4.02678 7.04892 3.5 8.375 3.5H16.375ZM16.375 5.5H8.375C7.57935 5.5 6.81629 5.81607 6.25368 6.37868C5.69107 6.94129 5.375 7.70435 5.375 8.5V16.5C5.375 17.2956 5.69107 18.0587 6.25368 18.6213C6.81629 19.1839 7.57935 19.5 8.375 19.5H16.375C17.1706 19.5 17.9337 19.1839 18.4963 18.6213C19.0589 18.0587 19.375 17.2956 19.375 16.5V8.5C19.375 7.70435 19.0589 6.94129 18.4963 6.37868C17.9337 5.81607 17.1706 5.5 16.375 5.5ZM12.375 8.5C13.4359 8.5 14.4533 8.92143 15.2034 9.67157C15.9536 10.4217 16.375 11.4391 16.375 12.5C16.375 13.5609 15.9536 14.5783 15.2034 15.3284C14.4533 16.0786 13.4359 16.5 12.375 16.5C11.3141 16.5 10.2967 16.0786 9.54657 15.3284C8.79643 14.5783 8.375 13.5609 8.375 12.5C8.375 11.4391 8.79643 10.4217 9.54657 9.67157C10.2967 8.92143 11.3141 8.5 12.375 8.5ZM12.375 10.5C11.8446 10.5 11.3359 10.7107 10.9608 11.0858C10.5857 11.4609 10.375 11.9696 10.375 12.5C10.375 13.0304 10.5857 13.5391 10.9608 13.9142C11.3359 14.2893 11.8446 14.5 12.375 14.5C12.9054 14.5 13.4141 14.2893 13.7892 13.9142C14.1643 13.5391 14.375 13.0304 14.375 12.5C14.375 11.9696 14.1643 11.4609 13.7892 11.0858C13.4141 10.7107 12.9054 10.5 12.375 10.5ZM16.875 7C17.1402 7 17.3946 7.10536 17.5821 7.29289C17.7696 7.48043 17.875 7.73478 17.875 8C17.875 8.26522 17.7696 8.51957 17.5821 8.70711C17.3946 8.89464 17.1402 9 16.875 9C16.6098 9 16.3554 8.89464 16.1679 8.70711C15.9804 8.51957 15.875 8.26522 15.875 8C15.875 7.73478 15.9804 7.48043 16.1679 7.29289C16.3554 7.10536 16.6098 7 16.875 7Z" fill="#007AFF"/>
</g>
<defs>
<clipPath id="clip0_25_45">
<rect width="24" height="24" fill="white" transform="translate(0.375 0.5)"/>
</clipPath>
</defs>
</svg>
