<svg width="124" height="48" viewBox="0 0 124 48" fill="none" xmlns="http://www.w3.org/2000/svg">
<path d="M0 4.65729H4.32719V30.519H0V4.65729Z" fill="white"/>
<path d="M5.67838 21.5942C5.67838 20.2194 5.92629 18.946 6.42211 17.7741C6.91794 16.5796 7.60533 15.5654 8.48429 14.7315C9.38579 13.8751 10.445 13.2102 11.6621 12.737C12.8791 12.2411 14.2201 11.9932 15.685 11.9932C17.1274 11.9932 18.4684 12.2411 19.7079 12.737C20.9475 13.2102 22.0068 13.8751 22.8857 14.7315C23.7872 15.5654 24.4859 16.5796 24.9817 17.7741C25.5001 18.946 25.7592 20.2194 25.7592 21.5942C25.7592 22.9915 25.5001 24.2761 24.9817 25.4481C24.4859 26.5975 23.7872 27.6004 22.8857 28.4568C22.0068 29.3132 20.9475 29.9781 19.7079 30.4514C18.4684 30.9247 17.1274 31.1613 15.685 31.1613C14.2201 31.1613 12.8791 30.9247 11.6621 30.4514C10.445 29.9781 9.38579 29.3132 8.48429 28.4568C7.60533 27.6004 6.91794 26.5975 6.42211 25.4481C5.92629 24.2761 5.67838 22.9915 5.67838 21.5942ZM10.0056 21.5942C10.0056 22.383 10.1408 23.1155 10.4112 23.7916C10.7042 24.4452 11.0986 25.0086 11.5945 25.4819C12.1128 25.9552 12.7101 26.327 13.3862 26.5975C14.0848 26.8679 14.8511 27.0032 15.685 27.0032C16.5189 27.0032 17.2852 26.8679 17.9838 26.5975C18.6825 26.327 19.2797 25.9552 19.7755 25.4819C20.2939 25.0086 20.6883 24.4452 20.9588 23.7916C21.2517 23.1155 21.3982 22.383 21.3982 21.5942C21.3982 20.8054 21.2517 20.0842 20.9588 19.4306C20.6883 18.7545 20.2939 18.1798 19.7755 17.7065C19.2797 17.2106 18.6825 16.8275 17.9838 16.5571C17.2852 16.2866 16.5189 16.1514 15.685 16.1514C14.8511 16.1514 14.0848 16.2866 13.3862 16.5571C12.7101 16.8275 12.1128 17.2106 11.5945 17.7065C11.0986 18.1798 10.7042 18.7545 10.4112 19.4306C10.1408 20.0842 10.0056 20.8054 10.0056 21.5942Z" fill="white"/>
<path d="M37.7533 16.1514C36.401 16.1514 35.1953 16.2641 34.136 16.4894C33.0993 16.7148 32.1978 17.0416 31.4315 17.4698V30.519H27.1044V15.8809C28.389 14.7315 29.9215 13.7962 31.702 13.075C33.505 12.3538 35.5221 11.9932 37.7533 11.9932V16.1514Z" fill="white"/>
<path d="M42.7027 24.2311C43.176 25.1776 43.931 25.8763 44.9677 26.327C46.0045 26.7778 47.1651 27.0032 48.4498 27.0032C49.5992 27.0032 50.9402 26.6989 52.4727 26.0904C54.0278 25.4593 55.8308 24.3663 57.8817 22.8112V27.5441C56.5069 28.6935 55.0307 29.5837 53.4531 30.2147C51.8755 30.8458 50.1626 31.1613 48.3145 31.1613C46.8271 31.1613 45.441 30.9359 44.1564 30.4852C42.8718 30.0119 41.7562 29.3583 40.8096 28.5244C39.8855 27.6906 39.1531 26.6876 38.6122 25.5157C38.0713 24.3212 37.8008 23.0028 37.8008 21.5604C37.8008 20.1405 38.06 18.8446 38.5784 17.6727C39.1193 16.5007 39.8517 15.4978 40.7758 14.6639C41.7223 13.8075 42.8379 13.1539 44.1226 12.7032C45.4072 12.2299 46.8045 11.9932 48.3145 11.9932C49.8471 11.9932 51.2106 12.2186 52.4051 12.6693C53.6221 13.0976 54.6476 13.7061 55.4815 14.4949C56.3153 15.2837 56.9577 16.219 57.4084 17.3008C57.8591 18.3826 58.0845 19.5658 58.0845 20.8504L42.7027 24.2311ZM48.4498 16.1514C47.706 16.1514 46.9961 16.2528 46.32 16.4556C45.6439 16.6359 45.0353 16.9064 44.4944 17.267C43.9536 17.6276 43.4915 18.0671 43.1084 18.5854C42.7253 19.1038 42.4548 19.6898 42.2971 20.3433L53.115 17.9769C52.7544 17.5036 52.1797 17.0867 51.3909 16.7261C50.6246 16.343 49.6443 16.1514 48.4498 16.1514Z" fill="white"/>
<path d="M80.1819 18.7207C80.1819 17.8642 79.934 17.2219 79.4381 16.7937C78.9648 16.3655 78.3 16.1514 77.4436 16.1514C76.8576 16.1514 76.2604 16.2303 75.6518 16.388C75.0659 16.5233 74.5588 16.7374 74.1306 17.0303V30.519H69.8034V18.4164C69.8034 17.605 69.5555 17.0303 69.0596 16.6923C68.5863 16.3317 67.9215 16.1514 67.0651 16.1514C66.4791 16.1514 65.8819 16.2303 65.2734 16.388C64.6648 16.5458 64.1578 16.7599 63.7521 17.0303V30.519H59.4249V15.6781C59.8982 15.1147 60.4503 14.6076 61.0814 14.1568C61.7124 13.7061 62.366 13.3229 63.0421 13.0074C63.7408 12.6919 64.4395 12.444 65.1381 12.2637C65.8368 12.0834 66.4791 11.9932 67.0651 11.9932C68.1469 11.9932 69.116 12.1284 69.9724 12.3989C70.8288 12.6693 71.5613 13.0863 72.1698 13.6497C73.0037 13.1539 73.8939 12.7595 74.8405 12.4665C75.7871 12.151 76.6548 11.9932 77.4436 11.9932C78.5028 11.9932 79.4607 12.151 80.3171 12.4665C81.1961 12.782 81.9398 13.2328 82.5483 13.8188C83.1794 14.3822 83.6639 15.0809 84.002 15.9147C84.34 16.7486 84.5091 17.6839 84.5091 18.7207V30.519H80.1819V18.7207Z" fill="white"/>
<path d="M18.6092 41.6345C18.6092 41.4662 18.5092 41.3347 18.3094 41.2401C18.1201 41.1454 17.8677 41.0718 17.5522 41.0192C17.2366 40.9666 16.8738 40.9245 16.4636 40.893C16.0639 40.8509 15.6485 40.8036 15.2173 40.751C14.7966 40.6879 14.3811 40.609 13.971 40.5144C13.5713 40.4092 13.2137 40.2672 12.8982 40.0884C12.5827 39.9096 12.325 39.6782 12.1251 39.3942C11.9358 39.1103 11.8412 38.7527 11.8412 38.3215C11.8412 37.8692 11.9516 37.4695 12.1725 37.1225C12.4039 36.7754 12.7141 36.4862 13.1033 36.2548C13.5029 36.0234 13.9657 35.8499 14.4916 35.7342C15.0174 35.6185 15.5801 35.5606 16.1796 35.5606C16.6108 35.5606 17.0421 35.5922 17.4733 35.6553C17.9045 35.7184 18.3147 35.8025 18.7038 35.9077C19.1035 36.0129 19.4716 36.1338 19.8082 36.2706C20.1552 36.3968 20.455 36.5282 20.7074 36.665V39.126C20.3603 38.8736 19.987 38.6633 19.5873 38.495C19.1876 38.3267 18.7827 38.1953 18.3725 38.1006C17.9729 37.9954 17.5785 37.9271 17.1893 37.8955C16.8107 37.8534 16.4741 37.8324 16.1796 37.8324C15.5906 37.8324 15.1226 37.8745 14.7755 37.9586C14.4285 38.0322 14.2549 38.1269 14.2549 38.2426C14.2549 38.3793 14.4232 38.4687 14.7598 38.5108C15.0963 38.5423 15.5118 38.5791 16.0061 38.6212C16.5109 38.6528 17.0526 38.7106 17.631 38.7948C18.22 38.8684 18.7617 39.0104 19.256 39.2207C19.7608 39.4205 20.1815 39.715 20.5181 40.1042C20.8546 40.4828 21.0229 40.9929 21.0229 41.6345C21.0229 42.0867 20.9072 42.5022 20.6758 42.8808C20.4445 43.2489 20.1237 43.5697 19.7135 43.8431C19.3033 44.1061 18.8195 44.3112 18.2621 44.4584C17.7047 44.6057 17.1052 44.6793 16.4636 44.6793C16.0639 44.6793 15.6485 44.653 15.2173 44.6004C14.7861 44.5478 14.3601 44.4742 13.9394 44.3795C13.5187 44.2743 13.1085 44.1481 12.7089 44.0009C12.3197 43.8537 11.9569 43.6906 11.6203 43.5118V40.893C12.0515 41.1875 12.488 41.4346 12.9297 41.6345C13.382 41.8238 13.8185 41.9763 14.2392 42.092C14.6704 42.1972 15.0753 42.276 15.4539 42.3286C15.8326 42.3707 16.1691 42.3917 16.4636 42.3917C16.7581 42.3917 17.0368 42.3759 17.2997 42.3444C17.5627 42.3023 17.7888 42.2497 17.9781 42.1866C18.1779 42.1235 18.3305 42.0446 18.4356 41.95C18.5513 41.8553 18.6092 41.7502 18.6092 41.6345Z" fill="white"/>
<path d="M32.1973 38.8105C32.1973 38.4845 32.0974 38.2426 31.8975 38.0848C31.7082 37.9165 31.4453 37.8324 31.1087 37.8324C30.8668 37.8324 30.6249 37.8534 30.383 37.8955C30.1516 37.9376 29.9413 38.0165 29.752 38.1321V44.3795H27.3698V38.6685C27.3698 38.3635 27.2698 38.1479 27.07 38.0217C26.8807 37.8955 26.6178 37.8324 26.2812 37.8324C26.0393 37.8324 25.7974 37.8587 25.5555 37.9113C25.3241 37.9534 25.1138 38.027 24.9245 38.1321V44.3795H22.5422V37.3591C22.7736 37.0857 23.0471 36.8385 23.3626 36.6176C23.6781 36.3968 24.0042 36.2075 24.3407 36.0497C24.6773 35.8919 25.0138 35.771 25.3504 35.6868C25.687 35.6027 25.9972 35.5606 26.2812 35.5606C26.7755 35.5606 27.2225 35.6185 27.6222 35.7342C28.0218 35.8393 28.3742 36.0129 28.6792 36.2548C29.0789 36.0444 29.4943 35.8762 29.9255 35.7499C30.3567 35.6237 30.7511 35.5606 31.1087 35.5606C31.6241 35.5606 32.0974 35.6395 32.5286 35.7973C32.9598 35.9445 33.3227 36.1601 33.6171 36.4441C33.9221 36.7175 34.1588 37.0541 34.3271 37.4538C34.4953 37.8534 34.5795 38.3057 34.5795 38.8105V44.3795H32.1973V38.8105Z" fill="white"/>
<path d="M45.3435 42.7861C44.7125 43.3541 43.9973 43.8116 43.198 44.1587C42.4092 44.5057 41.5625 44.6793 40.658 44.6793C40.0164 44.6793 39.417 44.6109 38.8595 44.4742C38.3126 44.348 37.8341 44.1534 37.4239 43.8905C37.0137 43.617 36.6877 43.2857 36.4458 42.8966C36.2144 42.4969 36.0987 42.0289 36.0987 41.4925C36.0987 40.9245 36.2144 40.4407 36.4458 40.0411C36.6772 39.6309 36.9874 39.2943 37.3766 39.0314C37.7762 38.7685 38.2337 38.5739 38.7491 38.4477C39.275 38.3215 39.8271 38.2584 40.4056 38.2584C40.9946 38.2689 41.4942 38.3109 41.9043 38.3846C42.3145 38.4477 42.6563 38.5318 42.9298 38.637V38.4634C42.9298 38.4109 42.893 38.3478 42.8194 38.2741C42.7562 38.2005 42.6511 38.1321 42.5038 38.069C42.3671 38.0059 42.1778 37.9534 41.9359 37.9113C41.7045 37.8587 41.4258 37.8324 41.0997 37.8324C40.4582 37.8324 39.7956 37.9113 39.1119 38.069C38.4283 38.2163 37.6553 38.5266 36.7928 38.9998V36.5861C37.1189 36.4073 37.4397 36.2548 37.7552 36.1286C38.0812 35.9918 38.4178 35.8814 38.7649 35.7973C39.1119 35.7131 39.4748 35.6553 39.8534 35.6237C40.2426 35.5817 40.658 35.5606 41.0997 35.5606C41.7308 35.5606 42.3093 35.6448 42.8351 35.813C43.361 35.9708 43.808 36.2127 44.1761 36.5388C44.5442 36.8543 44.8282 37.2539 45.028 37.7377C45.2384 38.211 45.3435 38.7632 45.3435 39.3942V42.7861ZM38.4809 41.4925C38.4809 41.6502 38.5387 41.787 38.6544 41.9027C38.7806 42.0184 38.9437 42.113 39.1435 42.1866C39.3433 42.2497 39.5747 42.3023 39.8377 42.3444C40.1006 42.3759 40.374 42.3917 40.658 42.3917C41.0682 42.3917 41.4626 42.3497 41.8412 42.2655C42.2304 42.1709 42.5932 42.0394 42.9298 41.8711V40.9876C42.467 40.7983 42.02 40.6669 41.5888 40.5932C41.1681 40.5091 40.7684 40.467 40.3898 40.467C39.8429 40.467 39.3854 40.5564 39.0173 40.7352C38.6597 40.9035 38.4809 41.1559 38.4809 41.4925Z" fill="white"/>
<path d="M52.1677 37.8324C50.8741 37.8324 49.896 38.0059 49.2334 38.353V44.3795H46.8512V37.4222C47.4822 36.8648 48.2447 36.4178 49.1387 36.0812C50.0327 35.7342 51.0424 35.5606 52.1677 35.5606V37.8324Z" fill="white"/>
<path d="M53.0895 35.8446H54.2097V33.3835H56.6076V35.8446H58.8321V37.9744H56.6076V41.1454C56.6076 42.0289 57.0336 42.4285 57.8855 42.3444C57.9381 42.3234 58.0696 42.2971 58.2799 42.2655C58.4903 42.2234 58.7216 42.1866 58.9741 42.1551V44.3006C58.6796 44.3217 58.4219 44.348 58.201 44.3795C57.9802 44.4216 57.7908 44.4479 57.6331 44.4584C57.1493 44.4794 56.697 44.4374 56.2763 44.3322C55.8661 44.2165 55.5033 44.0325 55.1878 43.78C54.8828 43.5276 54.6409 43.1963 54.4621 42.7861C54.2938 42.3654 54.2097 41.8606 54.2097 41.2716V37.9744H53.0895V35.8446Z" fill="white"/>
<path d="M65.7259 40.1042C65.7259 40.4618 65.7838 40.7826 65.8995 41.0665C66.0257 41.3505 66.1992 41.5924 66.4201 41.7922C66.6409 41.9815 66.8986 42.1288 67.1931 42.234C67.4981 42.3391 67.8294 42.3917 68.187 42.3917C68.4394 42.3917 68.7076 42.3654 68.9916 42.3128C69.2756 42.2497 69.5911 42.1498 69.9382 42.0131C70.2958 41.8659 70.6902 41.666 71.1214 41.4136C71.5631 41.1612 72.0522 40.8351 72.5886 40.4355V43.0543C71.8944 43.6328 71.1898 44.0482 70.4746 44.3006C69.7699 44.5531 68.9811 44.6793 68.1081 44.6793C67.393 44.6793 66.7409 44.5688 66.1519 44.348C65.5734 44.1166 65.0739 43.8011 64.6532 43.4014C64.2325 42.9912 63.9064 42.5074 63.675 41.95C63.4542 41.3926 63.3437 40.7773 63.3437 40.1042C63.3437 39.4311 63.4542 38.8158 63.675 38.2584C63.9064 37.7009 64.2325 37.2224 64.6532 36.8227C65.0739 36.4231 65.5734 36.1128 66.1519 35.8919C66.7409 35.6711 67.393 35.5606 68.1081 35.5606C68.9811 35.5606 69.7699 35.6868 70.4746 35.9393C71.1898 36.1917 71.8944 36.6071 72.5886 37.1856V39.7887C72.0522 39.3995 71.5631 39.0787 71.1214 38.8263C70.6902 38.5634 70.2958 38.3635 69.9382 38.2268C69.5911 38.0796 69.2756 37.9796 68.9916 37.9271C68.7076 37.864 68.4394 37.8324 68.187 37.8324C67.8294 37.8324 67.4981 37.885 67.1931 37.9902C66.8986 38.0953 66.6409 38.2478 66.4201 38.4477C66.1992 38.6475 66.0257 38.8894 65.8995 39.1734C65.7838 39.4468 65.7259 39.7571 65.7259 40.1042Z" fill="white"/>
<path d="M74.0962 34.5352C74.0962 34.146 74.2382 33.8147 74.5221 33.5413C74.8061 33.2678 75.1637 33.1311 75.5949 33.1311C76.0156 33.1311 76.368 33.2678 76.6519 33.5413C76.9359 33.8147 77.0779 34.146 77.0779 34.5352C77.0779 34.8402 76.999 35.1084 76.8413 35.3398C76.6835 35.5606 76.4732 35.7289 76.2102 35.8446H76.8097V44.3795H74.4275V35.8446H74.9639C74.701 35.7289 74.4906 35.5606 74.3328 35.3398C74.1751 35.1084 74.0962 34.8402 74.0962 34.5352Z" fill="white"/>
<path d="M78.5937 35.8446H79.7138V33.3835H82.1117V35.8446H84.3362V37.9744H82.1117V41.1454C82.1117 42.0289 82.5377 42.4285 83.3896 42.3444C83.4422 42.3234 83.5737 42.2971 83.784 42.2655C83.9944 42.2234 84.2258 42.1866 84.4782 42.1551V44.3006C84.1837 44.3217 83.926 44.348 83.7051 44.3795C83.4843 44.4216 83.295 44.4479 83.1372 44.4584C82.6534 44.4794 82.2011 44.4374 81.7804 44.3322C81.3703 44.2165 81.0074 44.0325 80.6919 43.78C80.3869 43.5276 80.145 43.1963 79.9662 42.7861C79.7979 42.3654 79.7138 41.8606 79.7138 41.2716V37.9744H78.5937V35.8446Z" fill="white"/>
<path d="M90.5476 45.1683C91.1155 45.1683 91.6046 45.0737 92.0148 44.8844C92.4249 44.7056 92.6563 44.4321 92.7089 44.064C91.9832 44.2744 91.1997 44.3795 90.3583 44.3795C88.9489 44.3795 87.8604 44.0272 87.0926 43.3225C86.3353 42.6073 85.9567 41.5819 85.9567 40.2462V35.8446H88.3389V40.2462C88.3389 40.8562 88.5072 41.3189 88.8438 41.6345C89.1908 41.95 89.6957 42.1078 90.3583 42.1078C90.8316 42.1078 91.2575 42.0762 91.6361 42.0131C92.0253 41.9395 92.3881 41.8343 92.7247 41.6976V35.8446H95.1385V43.5907C95.1385 44.2323 95.0175 44.7897 94.7756 45.263C94.5442 45.7468 94.2182 46.1465 93.7975 46.462C93.3873 46.788 92.9035 47.0299 92.3461 47.1877C91.7886 47.3455 91.1891 47.4243 90.5476 47.4243C89.6746 47.4243 88.8438 47.3139 88.0549 47.093C87.2661 46.8827 86.593 46.5356 86.0356 46.0518V43.5749C86.919 44.1955 87.7394 44.6162 88.4967 44.837C89.2539 45.0579 89.9376 45.1683 90.5476 45.1683Z" fill="white"/>
<path d="M116.631 12.8704C116.807 13.1626 116.967 13.4665 117.095 13.7833C117.194 14.0322 117.433 14.5915 117.193 14.8215C116.946 15.0577 116.536 14.7336 116.34 14.5759C116.14 14.4155 115.945 14.2339 115.78 14.0363C115.61 13.8314 115.57 13.8118 115.492 13.8044C115.853 14.4361 116.526 15.6119 116.326 16.513C116.24 16.8959 115.698 18.6531 113.387 15.6442C113.306 15.5108 113.228 15.3759 113.153 15.2388C112.94 14.8489 112.75 14.4344 112.67 13.9945C112.665 13.965 112.66 13.9357 112.656 13.906C112.618 13.6421 112.629 13.3707 112.692 13.1116C112.745 12.8961 112.839 12.6758 113.028 12.5465C113.178 12.4434 113.363 12.396 113.544 12.3962C113.733 12.3963 113.918 12.4488 114.085 12.5345C114.501 12.7467 114.843 13.0957 115.153 13.4373C115.214 13.505 115.261 13.5849 115.328 13.6479C115.341 13.647 115.359 13.646 115.372 13.6451L115.381 13.6131C115.381 13.6131 115.144 13.243 114.968 13.0008C114.782 12.7452 113.866 11.3105 114.005 10.6597C114.151 9.97653 115.648 11.2368 116.631 12.8704Z" fill="#007AFF"/>
<path d="M118.998 27.0918C118.88 27.2302 118.762 27.3038 118.646 27.3108C117.7 27.3682 117.587 23.203 118.511 22.3032C119.147 21.6826 119.763 23.1749 119.628 25.0097C119.581 25.6399 119.434 26.5126 118.998 27.0916L118.998 27.0918Z" fill="#007AFF"/>
<path d="M116.6 22.5622C116.611 22.9726 116.567 23.9977 115.904 24.6473C115.766 24.7658 115.534 24.9642 115.197 24.9913C113.564 25.1233 112.626 21.6126 113.926 20.236C114.991 19.1083 116.54 20.4561 116.6 22.562L116.6 22.5622Z" fill="#007AFF"/>
<path d="M113.644 19.6856C113.477 19.8356 113.319 19.9773 113.008 20.055C111.211 20.505 109.319 17.5503 110.309 15.8396C111.164 14.3624 113.367 15.2847 113.993 17.3815C114.183 18.0184 114.276 18.9349 113.644 19.6854L113.644 19.6856Z" fill="#007AFF"/>
<path d="M120.364 23.1695C120.411 24.3969 120.296 24.8388 120.258 24.9841C120.234 25.045 120.202 25.1284 120.161 25.1482C119.767 25.3363 119.336 20.5611 119.699 20.0388C119.93 19.7069 120.297 21.4333 120.364 23.1697L120.364 23.1695Z" fill="#007AFF"/>
<path d="M117.391 13.42C118.01 14.4407 118.027 14.478 118.906 16.4316L119.387 17.7589C119.165 17.1611 117.701 13.9494 117.321 13.3064L117.391 13.4201L117.391 13.42Z" fill="#007AFF"/>
<path d="M119.387 17.7587C119.391 17.7715 119.396 17.7835 119.399 17.7939L119.387 17.7587Z" fill="#007AFF"/>
<path d="M112.238 10.6255C112.587 11.117 112.931 11.8226 112.586 12.3921C112.534 12.448 112.46 12.5215 112.393 12.56C111.194 13.2535 108.532 11.047 108.788 9.57151C108.991 8.39875 111.119 9.04871 112.238 10.6255Z" fill="#007AFF"/>
<path d="M112.873 8.94741C113.269 9.35252 113.731 9.92379 113.679 10.3444C113.661 10.3847 113.634 10.4404 113.599 10.4673C112.989 10.936 110.03 8.50614 110.08 7.57836C110.115 6.92664 111.8 7.8518 112.873 8.94741Z" fill="#007AFF"/>
<path d="M113.966 9.23086C114.021 9.26641 114.048 9.29135 114.167 9.40338C114.559 9.78664 115.049 10.3292 115.424 10.7297C115.866 11.2292 116.385 11.9541 116.785 12.4882C116.884 12.6346 116.895 12.6527 116.954 12.7526C116.969 12.7814 116.987 12.821 116.998 12.8514C116.992 12.8577 116.985 12.866 116.979 12.872C116.78 12.7593 113.969 9.4909 113.966 9.23067L113.966 9.23086Z" fill="#007AFF"/>
<path d="M117.545 27.5056C117.308 28.635 116.79 29.1407 116.62 29.3067C116.459 29.434 116.217 29.6267 115.923 29.5686C114.84 29.3555 114.84 25.8012 116.301 24.9704C117.224 24.4457 117.898 25.8199 117.545 27.5056Z" fill="#007AFF"/>
<path d="M119.903 19.6446L119.966 19.9379C119.983 20.017 119.999 20.1007 120.015 20.1869C119.981 20.013 119.944 19.8343 119.903 19.6446L119.903 19.6446Z" fill="#007AFF"/>
<path d="M120.015 20.1869C120.113 20.6925 120.185 21.1543 120.254 21.707C120.182 21.2558 120.104 20.6745 120.015 20.1869Z" fill="#007AFF"/>
<path d="M110.261 13.1936C110.369 13.4562 110.673 14.362 110.055 14.9924C109.951 15.0828 109.821 15.1953 109.618 15.2768C107.938 15.9521 105.584 13.8002 106.26 12.2067C106.892 10.7177 109.51 11.3633 110.261 13.1936Z" fill="#007AFF"/>
<path d="M110.674 23.7042C111.791 22.4742 113.447 23.3695 113.486 25.2247C113.498 25.7774 113.363 26.5779 112.657 27.2533C112.365 27.5053 112.053 27.6336 111.731 27.6346C110.293 27.639 109.377 25.1323 110.674 23.7042Z" fill="#007AFF"/>
<path d="M118.226 31.776C118.168 31.8352 118.021 31.9681 117.916 31.9239C117.406 31.7078 118.539 27.9108 119.179 27.6919C119.583 27.5537 119.545 28.7912 119.105 30.0994C118.932 30.6123 118.639 31.3195 118.226 31.7758L118.226 31.776Z" fill="#007AFF"/>
<path d="M109.972 6.33862C110.121 6.33678 111.26 7.01533 112.278 7.79196C112.657 8.08161 113.156 8.48643 113.375 8.771C113.387 8.79163 113.401 8.82039 113.406 8.84355C113.403 8.84837 113.399 8.8546 113.395 8.85919C113.123 8.88323 110.019 6.59822 109.972 6.33862Z" fill="#007AFF"/>
<path d="M120.303 25.7327C120.319 25.7895 120.321 25.866 120.292 26.1692L120.227 26.7352C120.105 27.5995 119.847 28.7367 119.645 29.5855C119.583 29.8018 119.567 29.8497 119.52 29.9778C119.492 30.0407 119.467 30.0764 119.444 30.085C119.434 30.0492 120.043 25.8382 120.303 25.7329L120.303 25.7327Z" fill="#007AFF"/>
<path d="M109.31 23.0262C107.441 23.3377 106 20.9692 107.075 19.3533C108.074 17.8537 110.358 18.5445 110.778 20.4731C110.88 20.9402 110.939 21.8376 110.188 22.6013C110.014 22.7573 109.72 22.9579 109.31 23.0262L109.31 23.0262Z" fill="#007AFF"/>
<path d="M113.589 31.6113C113.43 31.7284 113.1 31.9721 112.751 31.8943C111.734 31.6668 111.784 29.008 113.112 28.0784C114.105 27.3839 114.919 28.3275 114.614 29.8191C114.501 30.3751 114.172 31.1378 113.589 31.6113L113.589 31.6113Z" fill="#007AFF"/>
<path d="M116.891 30.0692C117.494 29.8578 117.572 30.9054 117.042 32.1071C116.837 32.5712 116.473 33.2252 115.896 33.7044C115.761 33.7997 115.557 33.9438 115.39 33.8869C114.678 33.6443 115.955 30.3975 116.891 30.069L116.891 30.0692Z" fill="#007AFF"/>
<path d="M107.847 7.48241C108.32 7.94498 108.44 8.34978 108.205 8.6857C108.181 8.70772 108.152 8.73942 108.126 8.75926C107.255 9.43688 104.702 8.12287 104.755 7.02352C104.798 6.10595 106.735 6.39339 107.848 7.48237L107.847 7.48241Z" fill="#007AFF"/>
<path d="M109.267 7.04884C108.896 7.514 106.183 6.15484 105.967 5.39623C105.818 4.87112 107.558 5.44953 108.588 6.16307C108.771 6.28971 109.362 6.72418 109.292 7.00063C109.285 7.01501 109.277 7.03593 109.267 7.04884Z" fill="#007AFF"/>
<path d="M106.868 16.0886C107.022 16.5121 107.177 17.3348 106.483 18.0885C106.405 18.1616 106.199 18.3558 105.832 18.4781C104.085 19.0607 102.285 17.1529 103.041 15.5199C103.741 14.0062 106.245 14.3782 106.868 16.0886Z" fill="#007AFF"/>
<path d="M105.639 11.0346C105.567 11.0921 105.468 11.1672 105.387 11.2113C104.039 11.9435 101.846 10.6283 102.258 9.33474C102.65 8.10796 105.034 8.364 105.803 9.71527C105.935 9.94715 106.183 10.54 105.639 11.0345L105.639 11.0346Z" fill="#007AFF"/>
<path d="M107.923 5.53701C107.902 5.528 105.767 4.57765 105.742 4.51797C105.867 4.52339 106.864 4.8324 107.769 5.21947C108.04 5.33542 108.698 5.62787 108.948 5.83786C108.958 5.84962 108.971 5.86711 108.974 5.88219C108.916 5.92489 108.582 5.81516 107.923 5.5372L107.923 5.53701Z" fill="#007AFF"/>
<path d="M112.422 35.8633C111.774 35.5595 112.965 32.9862 113.903 32.6614C114.499 32.4552 114.745 33.1785 114.17 34.2854C114.001 34.6113 113.626 35.2271 113.014 35.689C112.678 35.9249 112.499 35.8994 112.422 35.8631L112.422 35.8633Z" fill="#007AFF"/>
<path d="M107.054 27.4229C108.021 26.3334 109.547 26.939 109.605 28.4354C109.623 28.8748 109.512 29.524 108.887 30.1206C108.712 30.2733 108.429 30.4628 108.075 30.4986C106.726 30.6345 106.04 28.5649 107.054 27.4227L107.054 27.4229Z" fill="#007AFF"/>
<path d="M106.642 24.0366C106.749 24.4926 106.743 25.1772 106.111 25.8489C105.971 25.9706 105.738 26.1741 105.38 26.2676C103.903 26.653 102.648 24.7406 103.488 23.3855C104.322 22.0394 106.268 22.441 106.642 24.0365L106.642 24.0366Z" fill="#007AFF"/>
<path d="M118.306 33.0847C118.112 33.5 117.799 34.0266 117.581 34.4301C117.579 34.432 117.577 34.4346 117.575 34.4368C118.073 33.337 118.69 32.2947 119.131 31.1677C118.905 31.7518 118.561 32.513 118.306 33.0847Z" fill="#007AFF"/>
<path d="M116.045 35.9466C115.831 35.7786 117.572 32.9352 117.966 32.8099C118.223 32.728 117.853 33.721 117.166 34.7571C116.846 35.2396 116.508 35.6486 116.261 35.8514C116.197 35.9001 116.089 35.9816 116.045 35.9467L116.045 35.9466Z" fill="#007AFF"/>
<path d="M111.031 32.6023C110.965 32.9331 110.767 33.567 110.175 34.098C110.045 34.1952 109.776 34.3973 109.457 34.3626C108.432 34.251 108.541 32.1414 109.611 31.3925C110.407 30.8345 111.277 31.3661 111.031 32.6023L111.031 32.6023Z" fill="#007AFF"/>
<path d="M115.119 36.3007C114.736 36.7801 114.258 37.2349 113.903 37.4589C113.803 37.5168 113.637 37.6136 113.563 37.5612C113.234 37.3268 115.172 34.8001 115.701 34.774C116.002 34.7593 115.809 35.4369 115.119 36.3007Z" fill="#007AFF"/>
<path d="M102.164 13.9718C102.066 14.054 101.945 14.1565 101.764 14.2425C100.317 14.9288 98.6457 13.6825 99.1725 12.3099C99.6653 11.0259 101.835 11.0869 102.443 12.4017C102.589 12.7187 102.748 13.3441 102.164 13.9718Z" fill="#007AFF"/>
<path d="M103.285 5.29029C103.531 5.46157 103.773 5.7218 103.537 5.98789C102.859 6.51721 101.067 5.87032 100.984 5.23316C100.908 4.64453 102.413 4.68196 103.285 5.29048L103.285 5.29029Z" fill="#007AFF"/>
<path d="M104.509 4.77958C104.454 4.83169 104.356 4.83541 104.285 4.83879C104.137 4.84604 103.986 4.82278 103.841 4.79476C103.44 4.71768 103.047 4.58691 102.67 4.43166C102.516 4.36834 102.363 4.30064 102.218 4.21769C102.159 4.18375 102.039 4.12795 102.019 4.05355C101.969 3.86007 103.163 4.04956 103.88 4.30786C104.077 4.37908 104.31 4.45773 104.466 4.60559C104.514 4.65143 104.571 4.7217 104.509 4.7794L104.509 4.77958Z" fill="#007AFF"/>
<path d="M102.804 20.0484C103.014 20.9029 102.54 21.4536 102.385 21.6345C102.257 21.7543 102.045 21.9548 101.697 22.0642C100.225 22.5275 98.87 20.788 99.6546 19.4427C100.424 18.1238 102.425 18.5087 102.804 20.0482L102.804 20.0484Z" fill="#007AFF"/>
<path d="M101.133 7.96231C101.132 7.96338 101.13 7.96494 101.129 7.96619C100.298 8.62586 98.6127 8.071 98.725 7.17477C98.8383 6.27145 100.598 6.18423 101.235 7.0505C101.396 7.26878 101.509 7.60423 101.133 7.96235L101.133 7.96231Z" fill="#007AFF"/>
<path d="M109.9 37.7217C109.781 37.8031 109.532 37.9723 109.371 37.8881C108.926 37.6548 109.727 35.7258 110.604 35.4713C111.106 35.3255 111.218 35.88 110.835 36.6128C110.707 36.8569 110.416 37.3255 109.9 37.7217Z" fill="#007AFF"/>
<path d="M111.114 39.0398C111.011 39.0965 110.796 39.2146 110.727 39.1597C110.581 39.0434 111.23 38.2183 111.61 37.8023C112.207 37.1484 112.606 36.914 112.779 36.9128C113.072 36.9108 112.824 37.4792 112.27 38.0824C111.92 38.4619 111.478 38.8287 111.114 39.0396L111.114 39.0398Z" fill="#007AFF"/>
<path d="M102.052 3.77498C102.504 3.82778 103.105 3.91112 103.555 3.98134L103.604 3.99002C103.773 4.02148 103.95 4.05565 104.08 4.09586C104.088 4.09862 104.095 4.10759 104.1 4.11353C104.011 4.1133 103.783 4.07337 103.337 3.98985C102.803 3.88991 102.456 3.8261 102.053 3.77494L102.052 3.77498Z" fill="#007AFF"/>
<path d="M98.1595 17.5002C98.0273 17.6304 97.8277 17.8272 97.4644 17.927C96.2783 18.2523 95.2692 17.0046 95.8527 15.9344C96.4717 14.7996 98.12 14.946 98.4852 16.1681C98.5368 16.3407 98.6656 16.947 98.1595 17.5002Z" fill="#007AFF"/>
<path d="M103.927 31.0896C104.523 30.3978 105.648 30.6989 105.735 31.8184C105.748 31.9836 105.757 32.5576 105.333 33.0056C105.233 33.1001 105.026 33.2969 104.705 33.3155C103.751 33.3713 103.235 31.8945 103.928 31.0897L103.927 31.0896Z" fill="#007AFF"/>
<path d="M115.17 37.4109C115.224 37.4801 114.738 38.0517 114.206 38.5435C114.009 38.7264 113.626 39.064 113.286 39.2699C113.184 39.3288 113.17 39.3242 113.141 39.3149C113.157 39.1565 115.016 37.4127 115.17 37.4108L115.17 37.4109Z" fill="#007AFF"/>
<path d="M102.64 27.829C102.711 28.1068 102.77 28.6504 102.357 29.1723C102.278 29.2615 102.107 29.4227 101.852 29.5019C100.782 29.8331 99.7961 28.4741 100.344 27.4243C100.824 26.5048 102.323 26.5991 102.64 27.8288L102.64 27.829Z" fill="#007AFF"/>
<path d="M98.1901 9.58728C98.2326 9.71426 98.3369 10.1594 97.898 10.5591C97.7933 10.6443 97.6943 10.7247 97.4976 10.8028C96.4679 11.2116 95.4664 10.4698 95.8741 9.6001C96.3043 8.68179 97.8845 8.67303 98.1903 9.58725L98.1901 9.58728Z" fill="#007AFF"/>
<path d="M114.746 38.1826C115.201 37.6723 115.799 36.9844 116.225 36.4498C115.662 37.1924 114.865 38.0619 114.746 38.1826Z" fill="#007AFF"/>
<path d="M110.621 40.5145C110.678 40.3064 112.578 38.9065 112.761 38.9378C112.888 38.9594 112.497 39.3894 111.877 39.842C111.528 40.0965 111.148 40.3266 110.861 40.4575C110.66 40.5451 110.646 40.5344 110.621 40.5145L110.621 40.5145Z" fill="#007AFF"/>
<path d="M106.484 34.6746C107.048 34.292 107.58 34.7582 107.467 35.5348C107.447 35.6668 107.355 36.1255 106.974 36.4834C106.873 36.5702 106.664 36.7513 106.423 36.7124C105.797 36.6117 105.716 35.1958 106.484 34.6744L106.484 34.6746Z" fill="#007AFF"/>
<path d="M98.711 23.9815C98.8044 24.2464 98.9045 24.7686 98.525 25.289C98.4448 25.3766 98.3107 25.523 98.0676 25.6138C97.0234 26.0035 96.0251 24.839 96.4967 23.7812C96.8878 22.9038 98.3219 22.879 98.711 23.9815Z" fill="#007AFF"/>
<path d="M108.996 40.0218C108.749 40.2539 108.482 40.4582 108.2 40.6294C108.107 40.682 107.935 40.7797 107.903 40.73C107.821 40.6035 109.088 39.1642 109.483 39.1962C109.652 39.2098 109.48 39.5657 108.996 40.0218L108.996 40.0218Z" fill="#007AFF"/>
<path d="M99.5142 4.4346C99.1806 4.67913 98.2286 4.49522 98.1638 4.2403C98.097 3.97751 98.993 3.96138 99.4122 4.16015C99.5354 4.2187 99.6532 4.31363 99.5142 4.43441L99.5142 4.4346Z" fill="#007AFF"/>
<path d="M98.881 3.70355C98.8894 3.70241 98.9007 3.70148 98.9092 3.70091L99.4663 3.67926C99.5496 3.67808 99.745 3.67551 99.9377 3.68687C100.088 3.69576 100.27 3.71429 100.283 3.75179C100.204 3.83969 98.9588 3.73089 98.881 3.70355Z" fill="#007AFF"/>
<path d="M97.4693 5.87828C96.9677 6.21548 96.1557 6.04354 96.228 5.61545C96.3044 5.16426 97.3101 5.01448 97.5903 5.41261C97.6735 5.53079 97.6853 5.71527 97.4694 5.87847L97.4693 5.87828Z" fill="#007AFF"/>
<path d="M107.131 39.6097C107.034 39.6882 106.899 39.7742 106.808 39.7373C106.523 39.6224 106.945 38.4506 107.478 38.2575C107.787 38.1455 107.875 38.4682 107.66 38.9216C107.59 39.0692 107.428 39.355 107.131 39.6097L107.131 39.6097Z" fill="#007AFF"/>
<path d="M107.83 41.6937C107.919 41.5309 109.624 40.5051 109.711 40.5623C109.768 40.5998 109.457 40.8663 108.956 41.1667C108.748 41.2917 108.422 41.474 108.051 41.6328C107.86 41.7101 107.849 41.7042 107.83 41.6936L107.83 41.6937Z" fill="#007AFF"/>
<path d="M94.0431 13.8023C93.9513 13.8882 93.7979 14.0318 93.5419 14.1042C92.7797 14.3193 92.2342 13.5936 92.6441 12.9097C93.084 12.1756 94.1181 12.1724 94.3208 12.9044C94.4033 13.2023 94.2994 13.5381 94.0432 13.8025L94.0431 13.8023Z" fill="#007AFF"/>
<path d="M94.4441 20.3877C94.4801 20.5115 94.5735 20.9463 94.2639 21.3478C94.1885 21.4358 94.0312 21.6188 93.7501 21.6815C92.9449 21.8614 92.3538 20.8965 92.8061 20.1407C93.2294 19.4332 94.2091 19.5811 94.4441 20.3879L94.4441 20.3877Z" fill="#007AFF"/>
<path d="M94.5307 7.9943C94.4735 8.03718 94.3397 8.13721 94.1264 8.1791C93.5934 8.28363 93.3954 7.92455 93.6307 7.56986C93.9215 7.13208 94.6697 7.07152 94.7583 7.47871C94.7863 7.6069 94.7434 7.81878 94.5306 7.99434L94.5307 7.9943Z" fill="#007AFF"/>
<path d="M111.12 40.9332C111.121 40.9355 111.123 40.9386 111.125 40.9409C111.081 41.0013 110.727 41.2224 110.41 41.3874C110.204 41.4948 110.023 41.5771 109.871 41.6319C109.817 41.6495 109.806 41.6528 109.785 41.6531C109.784 41.6503 109.784 41.6467 109.783 41.6439C109.851 41.5729 111.002 40.9422 111.12 40.9333L111.12 40.9332Z" fill="#007AFF"/>
<path d="M102.446 35.193C102.543 35.494 102.406 35.7058 102.361 35.7753C102.295 35.8676 102.223 35.929 102.146 35.9578C101.821 36.0794 101.229 35.5156 101.535 34.8932C101.681 34.5956 102.246 34.5739 102.446 35.193Z" fill="#007AFF"/>
<path d="M99.1101 31.82C99.1981 32.044 99.178 32.2571 99.0506 32.4533C99.0123 32.5059 98.9482 32.5939 98.8415 32.6432C98.4247 32.8353 97.7407 32.184 97.9617 31.6379C98.1814 31.0948 98.8684 31.2036 99.1101 31.82Z" fill="#007AFF"/>
<path d="M108.441 41.9415C108.395 41.9822 108.138 42.1053 107.804 42.2333C107.609 42.3081 107.424 42.3704 107.252 42.4185C107.13 42.4519 107.125 42.4499 107.117 42.4462C107.126 42.4394 108.366 41.9082 108.441 41.9417L108.441 41.9415Z" fill="#007AFF"/>
<path d="M104.204 38.8619C103.992 38.8753 103.726 38.3446 104.036 37.9969C104.247 37.7594 104.497 37.9944 104.514 38.339C104.521 38.4829 104.479 38.6152 104.389 38.7319C104.353 38.7755 104.287 38.8566 104.204 38.8619Z" fill="#007AFF"/>
<path d="M105.783 42.011C105.666 42.0873 105.65 42.0846 105.642 42.0831C105.628 42.0521 105.927 41.735 106.048 41.6227C106.223 41.4601 106.391 41.3476 106.433 41.3483C106.485 41.3491 106.394 41.5045 106.137 41.7368C105.975 41.8832 105.84 41.9728 105.783 42.011Z" fill="#007AFF"/>
<path d="M105.116 42.8031C105.126 42.7969 106.239 42.1994 106.313 42.2131C106.274 42.2559 106.021 42.399 105.762 42.5257C105.601 42.604 105.43 42.6808 105.253 42.7538C105.178 42.7843 105.133 42.8007 105.116 42.8031L105.116 42.8031Z" fill="#007AFF"/>
<path d="M95.0553 28.4081C95.1921 28.7065 95.0839 28.8987 95.0378 28.9809C94.9994 29.0418 94.9331 29.1244 94.8352 29.1723C94.4642 29.3538 93.8542 28.8177 94.0404 28.324C94.2104 27.8732 94.7945 27.8393 95.0553 28.4081Z" fill="#007AFF"/>
<path d="M105.168 42.9435C105.119 42.9631 104.935 43.0198 104.713 43.0808C104.545 43.1272 104.388 43.167 104.257 43.1999C104.224 43.208 104.203 43.2129 104.194 43.2147C104.525 43.125 104.552 43.1177 104.824 43.0385C105.133 42.9484 105.153 42.9433 105.168 42.9432L105.168 42.9435Z" fill="#007AFF"/>
<path d="M91.1109 10.4636C91.1163 10.5288 91.1005 10.6615 90.9359 10.8173C90.8919 10.8565 90.7747 10.9603 90.6376 10.9683C90.4723 10.9778 90.234 10.8021 90.541 10.4331C90.7119 10.228 91.0871 10.1705 91.1109 10.4636Z" fill="#007AFF"/>
<path d="M90.1982 17.429C90.1528 17.4816 90.0581 17.5913 89.9266 17.6256C89.6445 17.6994 89.2682 17.3358 89.5626 16.8896C89.8154 16.5063 90.2546 16.5544 90.3329 16.974C90.3617 17.1282 90.3163 17.2812 90.1979 17.4288L90.1982 17.429Z" fill="#007AFF"/>
<path d="M105.081 40.8703C105.153 40.8392 105.164 40.9714 105.123 41.0976C105.1 41.1677 105.062 41.2335 105.01 41.2928C104.991 41.3127 104.953 41.3542 104.928 41.3429C104.848 41.3065 104.939 40.9322 105.081 40.8704L105.081 40.8703Z" fill="#007AFF"/>
<path d="M96.5031 3.99047C96.6623 3.94412 96.7143 3.94189 96.7365 3.94087C96.7505 3.94016 96.7539 3.94105 96.7574 3.9419C96.7577 3.94262 96.7583 3.94349 96.7586 3.9442C96.7552 3.94747 96.7503 3.94947 96.734 3.95458C96.6532 3.9789 96.5592 3.98622 96.5029 3.99051L96.5031 3.99047Z" fill="#007AFF"/>
<path d="M90.5912 25.491C90.3707 25.5947 90.1037 25.2673 90.1999 25.0112C90.2797 24.799 90.5979 24.6924 90.7411 25.0456C90.809 25.2132 90.7549 25.3144 90.7318 25.3575C90.7144 25.3859 90.6662 25.4559 90.5914 25.491L90.5912 25.491Z" fill="#007AFF"/>
<path d="M95.0992 4.68166C95.0095 4.72808 94.9423 4.7364 94.867 4.71072C94.9447 4.67582 95.0128 4.62263 95.0927 4.592C95.1193 4.5818 95.2061 4.55076 95.2106 4.57858C95.213 4.59287 95.2016 4.62553 95.0992 4.68166Z" fill="#007AFF"/>
<path d="M119.208 17.5862C119.708 19.158 119.729 20.3369 119.253 20.0597C118.981 19.9014 118.68 19.3423 118.439 18.8931C118.459 18.9308 118.458 19.0014 118.467 19.0443C118.478 19.0983 118.49 19.152 118.503 19.2057C118.53 19.317 118.559 19.4277 118.582 19.5397C118.605 19.6471 118.611 19.7572 118.632 19.8641C118.638 19.8988 118.686 20.2535 118.676 20.2512C118.706 20.4293 118.697 20.6077 118.709 20.787C118.712 20.8307 118.713 20.8746 118.712 20.9186C118.711 20.9423 118.712 20.9664 118.711 20.9903C118.708 21.0448 118.713 21.0996 118.71 21.1541C118.692 21.465 118.597 21.8511 118.423 22.1132C118.351 22.2213 118.273 22.329 118.167 22.4034C117.922 22.5752 117.466 22.4394 117.259 22.2548C117.112 22.1241 116.973 21.9742 116.861 21.8101C116.638 21.4852 116.502 21.1037 116.361 20.7381C116.204 20.3289 116.085 19.9064 116.011 19.4741C115.934 19.0184 115.931 18.5936 115.968 18.1352C116 17.7421 116.118 17.2942 116.423 17.0235C116.467 16.9851 116.513 16.9488 116.565 16.9233C116.846 16.7867 117.173 16.9852 117.387 17.1637C117.512 17.2684 117.613 17.3965 117.709 17.5278C117.763 17.6014 117.814 17.6768 117.869 17.7499C117.909 17.8031 118.014 17.8888 118.032 17.9497C117.826 17.2586 117.591 16.5692 117.456 15.8596C117.397 15.543 117.29 15.0417 117.552 14.7808C118.134 14.7951 118.92 16.6769 119.209 17.586L119.208 17.5862Z" fill="#007AFF"/>
<path d="M116.212 17.277C116.213 17.2749 116.214 17.2728 116.215 17.2707L116.216 17.2713C116.214 17.2732 116.213 17.2751 116.212 17.277Z" fill="#007AFF"/>
</svg>
