<svg width="25" height="25" viewBox="0 0 25 25" fill="none" xmlns="http://www.w3.org/2000/svg">
<g clip-path="url(#clip0_25_55)">
<path fill-rule="evenodd" clip-rule="evenodd" d="M14.875 2.5C15.4054 2.5 15.9141 2.71071 16.2892 3.08579C16.6643 3.46086 16.875 3.96957 16.875 4.5C16.8755 5.19111 17.1143 5.86091 17.5511 6.39647C17.988 6.93202 18.5961 7.30058 19.273 7.44C19.7928 7.54556 20.2494 7.85329 20.5424 8.2955C20.8353 8.73771 20.9406 9.27818 20.835 9.798C20.7294 10.3178 20.4217 10.7744 19.9795 11.0674C19.5373 11.3603 18.9968 11.4656 18.477 11.36C17.9233 11.2473 17.3853 11.0677 16.875 10.825V16.5C16.875 17.6222 16.5602 18.722 15.9664 19.6743C15.3726 20.6265 14.5237 21.3932 13.516 21.8872C12.5084 22.3812 11.3824 22.5827 10.2659 22.4687C9.14949 22.3548 8.08738 21.9301 7.20025 21.2428C6.31312 20.5554 5.63654 19.6331 5.24735 18.5805C4.85817 17.5279 4.77199 16.3873 4.9986 15.2881C5.22522 14.189 5.75554 13.1755 6.52933 12.3627C7.30312 11.5499 8.28935 10.9704 9.376 10.69C9.88642 10.5669 10.4248 10.6495 10.8748 10.9198C11.3249 11.1902 11.6506 11.6268 11.7816 12.1352C11.9126 12.6436 11.8385 13.1832 11.5751 13.6374C11.3118 14.0917 10.8803 14.4241 10.374 14.563C9.90518 14.6874 9.49746 14.9778 9.22662 15.3802C8.95578 15.7826 8.84023 16.2696 8.90146 16.7508C8.9627 17.2319 9.19653 17.6745 9.55952 17.9962C9.92251 18.318 10.39 18.497 10.875 18.5C11.4054 18.5 11.9141 18.2893 12.2892 17.9142C12.6643 17.5391 12.875 17.0304 12.875 16.5V4.5C12.875 3.96957 13.0857 3.46086 13.4608 3.08579C13.8359 2.71071 14.3446 2.5 14.875 2.5Z" fill="#007AFF"/>
</g>
<defs>
<clipPath id="clip0_25_55">
<rect width="24" height="24" fill="white" transform="translate(0.875 0.5)"/>
</clipPath>
</defs>
</svg>
