<svg width="25" height="25" viewBox="0 0 25 25" fill="none" xmlns="http://www.w3.org/2000/svg">
<path fill-rule="evenodd" clip-rule="evenodd" d="M19.878 5.159C19.9645 5.06011 20.0306 4.94516 20.0727 4.82071C20.1147 4.69626 20.1319 4.56475 20.1231 4.43368C20.1143 4.30261 20.0798 4.17455 20.0215 4.05682C19.9633 3.93908 19.8824 3.83398 19.7835 3.7475C19.6846 3.66102 19.5697 3.59487 19.4452 3.55282C19.3208 3.51077 19.1892 3.49364 19.0582 3.50242C18.9271 3.51119 18.7991 3.5457 18.6813 3.60396C18.5636 3.66223 18.4585 3.74311 18.372 3.842L13.262 9.682L8.925 3.9C8.83185 3.7758 8.71107 3.675 8.57221 3.60557C8.43336 3.53614 8.28025 3.5 8.125 3.5H4.125C3.93929 3.5 3.75725 3.55171 3.59927 3.64935C3.44129 3.74698 3.31363 3.88668 3.23057 4.05279C3.14752 4.21889 3.11236 4.40484 3.12904 4.58981C3.14572 4.77477 3.21357 4.95143 3.325 5.1L9.762 13.682L4.372 19.842C4.28553 19.9409 4.21937 20.0558 4.17732 20.1803C4.13527 20.3047 4.11814 20.4363 4.12692 20.5673C4.13569 20.6984 4.1702 20.8264 4.22847 20.9442C4.28673 21.0619 4.36761 21.167 4.4665 21.2535C4.56539 21.34 4.68034 21.4061 4.80479 21.4482C4.92924 21.4902 5.06075 21.5074 5.19182 21.4986C5.32289 21.4898 5.45095 21.4553 5.56868 21.397C5.68642 21.3388 5.79152 21.2579 5.878 21.159L10.988 15.318L15.325 21.1C15.4181 21.2242 15.5389 21.325 15.6778 21.3944C15.8166 21.4639 15.9698 21.5 16.125 21.5H20.125C20.3107 21.5 20.4928 21.4483 20.6507 21.3507C20.8087 21.253 20.9364 21.1133 21.0194 20.9472C21.1025 20.7811 21.1376 20.5952 21.121 20.4102C21.1043 20.2252 21.0364 20.0486 20.925 19.9L14.488 11.318L19.878 5.159ZM16.625 19.5L6.125 5.5H7.625L18.125 19.5H16.625Z" fill="#007AFF"/>
</svg>
